Coordinates
version=1
nRows=11
nColumns=42
inDegrees=yes

Units are S.I. units (second, meters, Newtons, ...)
If the header above contains a line with 'inDegrees', this indicates whether rotational values are in degrees (yes) or radians (no).

endheader
time	pelvis_tilt	pelvis_list	pelvis_rotation	pelvis_tx	pelvis_ty	pelvis_tz	hip_flexion_r	hip_adduction_r	hip_rotation_r	knee_angle_r	knee_adduction_r	knee_angle_r_beta	ankle_angle_r	subtalar_angle_r	mtp_angle_r	hip_flexion_l	hip_adduction_l	hip_rotation_l	knee_angle_l	knee_adduction_l	knee_angle_l_beta	ankle_angle_l	subtalar_angle_l	mtp_angle_l	lumbar_extension	lumbar_bending	lumbar_rotation	arm_flex_r	arm_add_r	arm_rot_r	elbow_flex_r	pro_sup_r	wrist_flex_r	wrist_dev_r	arm_flex_l	arm_add_l	arm_rot_l	elbow_flex_l	pro_sup_l	wrist_flex_l	wrist_dev_l
      0.50000000	     20.32423613	     -0.21134562	      2.65910516	     -0.43389463	      0.93335803	     -0.17609941	     -4.85709267	      3.07965722	    -12.74701351	     29.31907110	     -3.02198596	      0.51171432	     13.13295455	     20.11700247	     -9.17876396	    -29.47250302	      3.13593008	     -5.92650630	     25.87478995	     -0.22659744	      0.45160028	     20.65425787	     -8.42154418	     -9.17876396	    -33.05675478	     -1.86842997	      3.08955740	      5.93859710	    -11.07174068	    -33.90345993	     23.69590699	     90.00000001	      0.00000000	      0.00000000	     -1.16410500	    -19.22346316	      1.02686018	     68.47065755	     90.00000001	      0.00000000	      0.00000000
      0.51000000	     20.55046726	     -0.23090955	      2.57305001	     -0.42834398	      0.93504945	     -0.17504710	     -6.02442216	      3.17713292	    -13.46217235	     28.11043598	     -3.15573572	      0.49061966	     13.07546327	     21.21209881	     -9.14373169	    -29.46074956	      2.70326383	     -6.03637278	     27.23989904	      0.40301693	      0.47542593	     19.54178438	     -8.88244835	     -9.14373169	    -33.27029832	     -1.94806821	      3.11520222	      6.42826292	    -10.95799490	    -33.96719919	     24.06187948	     90.00000001	      0.00000000	      0.00000000	     -1.12730160	    -19.30237402	      0.96810993	     68.56076237	     90.00000001	      0.00000000	      0.00000000
      0.52000000	     20.70115526	      0.01164744	      2.48292693	     -0.42270239	      0.93651988	     -0.17429871	     -6.88502336	      2.90823926	    -16.15420648	     27.20605310	     -4.27442766	      0.47483520	     13.36602847	     25.67153361	     -9.00929276	    -29.37841300	      2.53689583	     -5.62302632	     28.60280674	      1.23961928	      0.49921315	     18.15861048	     -9.92451587	     -9.00929276	    -33.38116977	     -2.26637585	      3.00681940	      6.83032413	    -10.86753125	    -33.55747719	     24.48219551	     90.00000001	      0.00000000	      0.00000000	     -1.10230897	    -19.37115552	      0.81665246	     68.66396003	     90.00000001	      0.00000000	      0.00000000
      0.53000000	     20.95533508	      0.03105031	      2.42519319	     -0.41726050	      0.93821949	     -0.17342807	     -8.07365239	      2.93418645	    -17.13605883	     25.97411739	     -4.40332032	      0.45333387	     13.21331121	     27.14007503	     -8.97569580	    -29.23030682	      2.08525874	     -5.57915127	     30.27886421	      1.94235412	      0.52846587	     16.90174795	    -10.44352073	     -8.97569580	    -33.62247844	     -2.34759424	      2.97262527	      7.32982611	    -10.78409391	    -33.28007066	     24.93107276	     90.00000001	      0.00000000	      0.00000000	     -1.08277864	    -19.41423083	      0.66609074	     68.84940529	     90.00000001	      0.00000000	      0.00000000
      0.54000000	     21.10214907	      0.32281283	      2.37231237	     -0.41184020	      0.93963967	     -0.17283854	     -8.90149389	      2.55670902	    -19.67797477	     25.13681955	     -5.21007983	      0.43872026	     13.27151410	     31.26022337	     -8.86761271	    -28.96867643	      1.91594635	     -4.90760681	     31.88212039	      2.90552198	      0.55644797	     15.42305963	    -11.61740695	     -8.86761271	    -33.75817817	     -2.67648811	      2.80888162	      7.62848048	    -10.75819211	    -31.95872776	     25.57157280	     90.00000001	      0.00000000	      0.00000000	     -1.03765908	    -19.45987490	      0.49323688	     68.98675176	     90.00000001	      0.00000000	      0.00000000
      0.55000000	     21.23997671	      0.61170018	      2.23350346	     -0.40676343	      0.94110237	     -0.17204435	     -9.83556819	      2.17367081	    -20.19500785	     24.34277628	     -4.96241287	      0.42486160	     13.34658741	     31.72898514	     -8.85783055	    -28.53963349	      1.74416330	     -4.65620528	     33.69197899	      3.69164758	      0.58803596	     14.45231519	    -11.61755220	     -8.85783055	    -33.94086945	     -3.06319499	      2.77657305	      8.19003909	    -10.64977043	    -31.77388138	     25.94135263	     90.00000001	      0.00000000	      0.00000000	     -0.88035121	    -19.51622669	      0.39651908	     69.09146002	     90.00000001	      0.00000000	      0.00000000
      0.56000000	     21.25420959	      0.55182172	      2.48963861	     -0.40171575	      0.94223636	     -0.17178331	    -10.71695395	      2.26861068	    -21.03353086	     23.22424323	     -4.72312035	      0.40533951	     13.11855420	     33.03314818	     -8.84072947	    -27.66974950	      1.06128273	     -4.44951344	     36.11309843	      4.24437423	      0.63029247	     13.18285968	    -12.38037740	     -8.84072947	    -33.98185591	     -2.88416283	      2.47642803	      8.74796526	    -10.55670075	    -31.37469123	     26.54880685	     90.00000001	      0.00000000	      0.00000000	     -0.92403000	    -19.49992389	      0.26869620	     69.37759325	     90.00000001	      0.00000000	      0.00000000
      0.57000000	     21.17605432	      0.58319914	      2.61018678	     -0.39682000	      0.94310805	     -0.17126567	    -11.36368655	      2.27598309	    -21.86308703	     22.33608521	     -4.67039337	      0.38983823	     12.90341466	     34.31101945	     -8.81964755	    -26.64792538	      0.48686007	     -4.25540386	     38.52264308	      4.90526468	      0.67234696	     12.23668204	    -13.19936980	     -8.81964755	    -33.95036833	     -2.87949654	      2.33792560	      9.25690966	    -10.49847146	    -30.77337761	     27.11244628	     90.00000001	      0.00000000	      0.00000000	     -0.84117924	    -19.52102714	      0.08752350	     69.59585398	     90.00000001	      0.00000000	      0.00000000
      0.58000000	     21.02021941	      0.63844778	      2.71897350	     -0.39207464	      0.94375616	     -0.17082080	    -11.80973353	      2.23910822	    -22.62247934	     21.69028180	     -4.63321546	      0.37856683	     12.77414973	     35.32562227	     -8.79515716	    -25.47595716	     -0.04408954	     -4.10012831	     40.89991482	      5.49176895	      0.71383818	     11.50530728	    -14.03411337	     -8.79515716	    -33.86374934	     -2.91351463	      2.20659110	      9.75248353	    -10.46277447	    -29.97006500	     27.72586954	     90.00000001	      0.00000000	      0.00000000	     -0.75628406	    -19.49199591	     -0.06621953	     69.79640058	     90.00000001	      0.00000000	      0.00000000
      0.59000000	     20.76438357	      0.72590958	      2.83377197	     -0.38745731	      0.94407968	     -0.17053508	    -11.98246111	      2.14577688	    -23.55919387	     21.41001412	     -4.76839880	      0.37367524	     12.82432657	     36.45289816	     -8.66810566	    -24.13001839	     -0.50166445	     -3.87843298	     43.23179208	      6.01141925	      0.75453711	     10.88889544	    -15.05630642	     -8.66810566	    -33.69025658	     -2.96000292	      2.06388508	      9.73198059	    -10.77442741	    -26.23185378	     28.95160193	     90.00000001	      0.00000000	      0.00000000	     -0.65002882	    -19.41293882	     -0.23451068	     70.00272538	     90.00000001	      0.00000000	      0.00000000
      0.60000000	     20.87117146	      1.06940451	      2.69500252	     -0.38270607	      0.94512366	     -0.17010924	    -12.68231315	      1.71506029	    -23.53888344	     21.05717505	     -4.47909142	      0.36751704	     12.89401163	     36.35345513	     -8.65832860	    -23.42732179	     -0.54299254	     -3.79720950	     44.74768692	      6.37611279	      0.78099447	     10.77500409	    -15.05935221	     -8.65832860	    -33.90524112	     -3.34553382	      2.06830693	     10.37878640	    -10.73948573	    -26.06801865	     29.35098398	     90.00000001	      0.00000000	      0.00000000	     -0.42620529	    -19.36063227	     -0.24527757	     70.08431389	     90.00000001	      0.00000000	      0.00000000
